HIERARCHY
ROOT Hips
{
 OFFSET 0.000000 0.000000 0.000000
 CHANNELS 6 Xposition Yposition Zposition Yrotation Xrotation Zrotation
 JOINT Chest
 {
  OFFSET 0.000000 9.585900 0.002600
  CHANNELS 3 Yrotation Xrotation Zrotation
  JOINT Chest2
  {
   OFFSET 0.000000 9.601200 -0.005300
   CHANNELS 3 Yrotation Xrotation Zrotation
   JOINT Chest3
   {
    OFFSET 0.000000 9.561800 0.000000
    CHANNELS 3 Yrotation Xrotation Zrotation
    JOINT Chest4
    {
     OFFSET 0.000000 9.552100 0.000000
     CHANNELS 3 Yrotation Xrotation Zrotation
     JOINT Neck
     {
      OFFSET 0.000000 14.453000 0.000000
      CHANNELS 3 Yrotation Xrotation Zrotation
      JOINT Head
      {
       OFFSET 0.000000 8.936500 -0.011300
       CHANNELS 3 Yrotation Xrotation Zrotation
       End Site
       {
        OFFSET 0.000000 17.073600 -0.006000
       }
      }
     }
     JOINT RightCollar
     {
      OFFSET -2.921100 9.558500 0.000000
      CHANNELS 3 Yrotation Xrotation Zrotation
      JOINT RightShoulder
      {
       OFFSET -13.519700 0.000000 0.000000
       CHANNELS 3 Yrotation Xrotation Zrotation
       JOINT RightElbow
       {
        OFFSET 0.000000 -29.696600 0.000000
        CHANNELS 3 Yrotation Xrotation Zrotation
        JOINT RightWrist
        {
         OFFSET 0.000000 -24.004700 0.000000
         CHANNELS 3 Yrotation Xrotation Zrotation
         End Site
         {
          OFFSET 0.000000 -17.728500 0.000000
         }
        }
       }
      }
     }
     JOINT LeftCollar
     {
      OFFSET 2.921100 9.558500 0.000000
      CHANNELS 3 Yrotation Xrotation Zrotation
      JOINT LeftShoulder
      {
       OFFSET 13.519700 0.000000 0.000000
       CHANNELS 3 Yrotation Xrotation Zrotation
       JOINT LeftElbow
       {
        OFFSET 0.000000 -29.696600 0.000000
        CHANNELS 3 Yrotation Xrotation Zrotation
        JOINT LeftWrist
        {
         OFFSET 0.000000 -24.004700 0.000000
         CHANNELS 3 Yrotation Xrotation Zrotation
         End Site
         {
          OFFSET 0.000000 -17.728500 0.000000
         }
        }
       }
      }
     }
    }
   }
  }
 }
 JOINT RightHip
 {
  OFFSET -7.771700 -0.012900 -0.001300
  CHANNELS 3 Yrotation Xrotation Zrotation
  JOINT RightKnee
  {
   OFFSET 0.000000 -40.869800 0.001200
   CHANNELS 3 Yrotation Xrotation Zrotation
   JOINT RightAnkle
   {
    OFFSET 0.000000 -39.717900 0.002100
    CHANNELS 3 Yrotation Xrotation Zrotation
    JOINT RightToe
    {
     OFFSET 0.000000 -4.965400 11.033500
     CHANNELS 3 Yrotation Xrotation Zrotation
     End Site
     {
      OFFSET 0.000000 -1.423100 5.872300
     }
    }
   }
  }
 }
 JOINT LeftHip
 {
  OFFSET 7.771700 -0.012900 -0.001300
  CHANNELS 3 Yrotation Xrotation Zrotation
  JOINT LeftKnee
  {
   OFFSET 0.000000 -40.869800 0.001200
   CHANNELS 3 Yrotation Xrotation Zrotation
   JOINT LeftAnkle
   {
    OFFSET 0.000000 -39.717900 0.002100
    CHANNELS 3 Yrotation Xrotation Zrotation
    JOINT LeftToe
    {
     OFFSET 0.000000 -4.965400 11.033500
     CHANNELS 3 Yrotation Xrotation Zrotation
     End Site
     {
      OFFSET 0.000000 -1.423100 5.872300
     }
    }
   }
  }
 }
}
MOTION
Frames: 9
Frame Time: 0.008333
0.000000 85.388000 0.000000 0.000000 -5.767877 0.000000 0.000000 11.653817 0.000000 0.000000 -5.885947 0.000000 0.000000 -0.000000 0.000000 0.000000 -0.000000 0.000000 0.000000 12.528835 0.000000 0.000000 0.711642 0.000000 0.000000 -0.000000 0.000000 0.000000 0.000000 -90.000000 0.000000 -2.309062 0.000000 0.000000 2.309062 0.000000 0.000000 -0.000000 0.000000 0.000000 -0.000000 90.000000 0.000000 -2.309062 0.000000 0.000000 2.309062 0.000000 0.000000 8.520406 0.000000 0.000000 1.905762 0.000000 -0.000000 -4.658285 0.000000 0.000000 -0.000000 0.000000 0.000000 8.520406 0.000000 0.000000 1.905762 0.000000 -0.000000 -4.658285 0.000000 0.000000 -0.000000 0.000000
-215.315581 57.320805 134.633232 178.468756 -28.984883 -0.838406 -0.475617 21.113525 3.686659 -0.112659 2.862868 0.523134 -0.267902 4.546047 0.873232 -0.541671 17.932637 3.359226 -7.610123 15.847433 -4.244180 -12.637126 -6.406516 -5.166490 13.057491 -1.060357 -12.628456 30.351647 -34.575783 -11.186666 24.822951 -14.525759 -0.687159 22.369060 -14.708436 -53.445883 -10.974815 -9.948823 2.389814 -13.329617 -22.881084 -15.126194 -52.856204 -17.634734 26.575989 -22.320523 -19.592053 40.876156 1.014445 -47.380619 -0.485416 -16.893816 66.465178 -25.084822 6.815293 25.435713 4.056905 -1.168779 -17.112871 7.190456 -12.627733 -45.211934 2.954911 33.889595 69.765238 36.068628 -13.814536 6.329762 -6.596210 0.419596 -6.269194 -3.401367
-215.324303 57.319802 134.640950 178.502270 -28.946501 -0.824972 -0.581327 21.022515 3.647086 -0.144022 2.816288 0.528564 -0.257474 4.551877 0.867233 -0.571008 17.918593 3.359695 -7.623118 15.893584 -4.301086 -12.639909 -6.324499 -5.270609 13.292433 -1.061210 -12.816497 31.041777 -34.842639 -11.503628 24.070490 -13.447656 -0.108644 22.416336 -15.027437 -53.988798 -11.009479 -10.063573 2.552705 -14.207113 -23.475985 -15.076780 -51.994836 -16.459883 26.104643 -22.309331 -19.877573 41.358688 1.016558 -47.412146 -0.523837 -16.903944 66.450708 -25.102265 6.813659 25.457748 4.053481 -1.166629 -17.128140 7.199699 -12.699212 -45.251991 2.967550 33.828240 69.751325 35.963044 -13.833222 6.351851 -6.559792 0.510606 -6.295064 -3.464464
-215.326946 57.322881 134.642653 178.505136 -28.951129 -0.835858 -0.630272 20.992460 3.653289 -0.163974 2.790809 0.532581 -0.226094 4.579424 0.854889 -0.635871 17.860856 3.380716 -7.632457 15.940500 -4.355878 -12.636741 -6.240964 -5.372216 13.537064 -1.059594 -13.000810 31.716166 -35.094557 -11.830259 23.344005 -12.389614 0.430325 22.474645 -15.309665 -54.494722 -11.043113 -10.193985 2.720204 -15.147313 -24.112896 -15.008050 -51.077825 -15.227565 25.603966 -22.284188 -20.166093 41.856996 1.006218 -47.396369 -0.505597 -16.910531 66.434704 -25.111609 6.794936 25.448970 4.039197 -1.159296 -17.113983 7.212095 -12.839578 -45.235713 3.060002 33.907477 69.737957 35.949646 -13.786776 6.394005 -6.510079 0.484026 -6.326386 -3.511668
-215.330873 57.326158 134.644572 178.504563 -28.952485 -0.840177 -0.677089 20.964234 3.654359 -0.170424 2.782342 0.533950 -0.206823 4.589434 0.847851 -0.704304 17.812822 3.401911 -7.635271 15.985600 -4.408914 -12.599395 -6.193799 -5.445400 13.798904 -1.057580 -13.177721 32.363982 -35.331389 -12.152706 22.642940 -11.340960 0.927193 22.545596 -15.570024 -54.965214 -11.069425 -10.327937 2.887741 -16.128125 -24.794005 -14.924246 -50.131355 -13.962462 25.065375 -22.255987 -20.440258 42.341867 1.008832 -47.391936 -0.501361 -16.912119 66.429845 -25.113514 6.789101 25.450293 4.025539 -1.144510 -17.114602 7.224654 -12.892233 -45.228156 3.093775 33.924835 69.730078 35.931202 -13.775143 6.427663 -6.450098 0.497667 -6.364259 -3.578085
-215.335804 57.330078 134.645464 178.511454 -28.957622 -0.843503 -0.741544 20.939220 3.648016 -0.177970 2.773935 0.535668 -0.260819 4.538481 0.864986 -0.718981 17.826271 3.392922 -7.626839 16.031109 -4.465559 -12.553967 -6.145709 -5.527187 14.085257 -1.044617 -13.346169 32.973767 -35.556854 -12.458294 21.987174 -10.299283 1.383711 22.620822 -15.808306 -55.398855 -11.074773 -10.446651 3.035699 -17.105956 -25.506874 -14.839473 -49.204818 -12.691982 24.505698 -22.233113 -20.671493 42.767267 1.012714 -47.385208 -0.506776 -16.883975 66.439364 -25.084800 6.756361 25.444508 4.007830 -1.132916 -17.112119 7.238242 -12.913110 -45.220784 3.100965 33.860649 69.740054 35.853342 -13.744859 6.461077 -6.403573 0.493302 -6.401157 -3.623835
-215.341013 57.332652 134.648504 178.529947 -28.944161 -0.851643 -0.836280 20.890668 3.640734 -0.187746 2.765181 0.537991 -0.293153 4.511342 0.873788 -0.769490 17.813297 3.398043 -7.603393 16.078219 -4.532817 -12.509349 -6.064957 -5.655273 14.404658 -1.012542 -13.514669 33.532999 -35.778231 -12.740578 21.396166 -9.275133 1.807492 22.692710 -16.019615 -55.791936 -11.040021 -10.546584 3.146963 -18.031035 -26.222173 -14.766984 -48.361343 -11.444665 23.947121 -22.209167 -20.843117 43.117944 1.007546 -47.397065 -0.514680 -16.886288 66.438729 -25.081471 6.737342 25.447647 3.987069 -1.119622 -17.114287 7.252442 -12.984138 -45.225813 3.132400 33.764912 69.743063 35.730694 -13.708354 6.497681 -6.372345 0.500945 -6.436488 -3.668711
-215.344034 57.336599 134.648642 178.535990 -28.947177 -0.866218 -0.933518 20.851027 3.650633 -0.199660 2.756442 0.540903 -0.312605 4.497690 0.878291 -0.847761 17.785762 3.411818 -7.567690 16.127728 -4.612352 -12.421896 -5.929065 -5.865724 14.751315 -0.959635 -13.687677 34.041655 -36.001634 -13.007685 20.863011 -8.285068 2.210094 22.756307 -16.202116 -56.132795 -10.958379 -10.630650 3.216890 -18.875561 -26.912918 -14.702953 -47.640350 -10.243881 23.397627 -22.174880 -20.977415 43.417523 0.993683 -47.392414 -0.500815 -16.862569 66.442526 -25.052592 6.705941 25.456598 3.963114 -1.107379 -17.121611 7.264887 -13.038350 -45.209834 3.163646 33.734173 69.734932 35.681041 -13.694508 6.518916 -6.337092 0.505728 -6.452989 -3.711754
-215.352342 57.341577 134.645806 178.513882 -28.965748 -0.834677 -1.024241 20.815514 3.632913 -0.212230 2.746834 0.544175 -0.333035 4.482688 0.883401 -0.930126 17.755285 3.427989 -7.526933 16.184832 -4.700359 -12.313878 -5.812582 -6.064291 15.098351 -0.885199 -13.857489 34.511378 -36.222970 -13.269465 20.369001 -7.348890 2.594403 22.802446 -16.355864 -56.410860 -10.849872 -10.690835 3.252937 -19.627630 -27.563378 -14.639836 -47.036675 -9.118288 22.861559 -22.134492 -21.099598 43.684080 1.052606 -47.373823 -0.548818 -16.857924 66.444925 -25.031990 6.675655 25.465742 3.936991 -1.094851 -17.127321 7.278642 -13.012310 -45.170624 3.107964 33.747108 69.697285 35.688959 -13.661142 6.516827 -6.287527 0.483309 -6.446550 -3.765099
